<?xml version="1.0" encoding="UTF-8"?>
<svg id="Layer_1" data-name="Layer 1" xmlns="http://www.w3.org/2000/svg" viewBox="0 0 283.46 283.46">
  <defs>
    <style>
      .cls-1 {
        fill: #4caf50;
      }

      .cls-1, .cls-2 {
        stroke-width: 0px;
      }

      .cls-2 {
        fill: #fff;
      }
      .cls-3 {
        fill: #13363c;
      }
    </style>
  </defs>
  <path class="cls-2" d="m76.78,19.85c-21.35,12.59-42.64,33.28-52.9,67.21-8.92,29.5-7,61.32,5.14,89.65,7.3,17.02,19.12,36.09,38.16,50.92,4.27,3.32,8.25,6.99,11.92,10.97,7.8,8.47,20.55,22.31,25.16,27.24,13.1,14.01,43.75,21.7,62.11,6.38,4.45-3.71,9.29-6.93,13.17-11.23,7.96-8.82,24.56-26.9,29.81-30.18,7.01-4.38,62.18-46.42,55.17-117.35-5.49-55.54-36.2-89.07-84.16-104.37C145.8-1.95,108.04,1.42,76.78,19.85Z"/>
  <circle class="cls-1" cx="141.73" cy="123.46" r="102.56"/>
  <circle class="cls-2" cx="141.73" cy="124.72" r="41.93"/>
</svg>