<svg width="278" height="301" viewBox="0 0 278 301" fill="none" xmlns="http://www.w3.org/2000/svg">
<rect width="278" height="301" rx="42" fill="#FF8159"/>
<path d="M224.724 94.0192C224.706 93.964 224.697 93.9088 224.678 93.8536C223.602 90.0262 222.277 86.3 220.713 82.7027C207.059 51.1085 175.61 29 139 29C89.8398 29 50 68.8469 50 117.995C50 167.144 89.8398 207 139 207C175.61 207 207.059 184.891 220.713 153.297C222.277 149.7 223.602 145.974 224.678 142.146C224.697 142.091 224.706 142.036 224.724 141.981C226.859 134.354 228 126.303 228 117.995C228 109.687 226.859 101.646 224.724 94.0192ZM138.991 178.451C106.963 178.451 80.7493 153.537 78.6791 122.016C78.5871 120.691 78.5411 119.348 78.5411 117.995C78.5411 84.6164 105.61 57.5488 138.991 57.5488C160.87 57.5488 180.027 69.1689 190.635 86.5669C192.135 89.0234 193.46 91.5903 194.601 94.2584C197.72 101.545 199.45 109.568 199.45 117.995C199.45 119.348 199.404 120.691 199.312 122.016C198.852 128.981 197.214 135.614 194.601 141.742C193.46 144.41 192.135 146.977 190.635 149.433C180.027 166.831 160.87 178.451 138.991 178.451Z" fill="white"/>
<path d="M199.45 117.995C199.45 119.348 199.404 120.691 199.312 122.016C197.242 153.537 171.028 178.451 138.991 178.451C106.953 178.451 80.7493 153.537 78.6791 122.016C78.5871 120.691 78.5411 119.348 78.5411 117.995C78.5411 84.6164 105.61 57.5488 138.991 57.5488C172.372 57.5488 199.45 84.6164 199.45 117.995Z" fill="#C1390F"/>
<path d="M199.321 122.016C197.251 153.537 171.037 178.451 139 178.451C106.963 178.451 80.7584 153.537 78.6882 122.016C80.7584 90.4957 106.972 65.5811 139 65.5811C171.028 65.5811 197.251 90.4957 199.321 122.016Z" fill="#FF8159"/>
<path d="M228 117.995C228 126.303 226.859 134.354 224.724 141.981C224.706 142.036 224.697 142.091 224.678 142.146C223.602 145.974 222.277 149.7 220.713 153.297C217.309 154.328 213.702 154.889 209.957 154.889C202.872 154.889 196.257 152.893 190.635 149.433C192.135 146.977 193.46 144.41 194.601 141.742C197.214 135.614 198.852 128.981 199.312 122.016C199.404 120.691 199.45 119.348 199.45 117.995C199.45 109.568 197.72 101.545 194.601 94.2585C199.017 91.3879 204.299 89.7227 209.957 89.7227C215.616 89.7227 220.391 91.2315 224.678 93.8536C224.697 93.9088 224.706 93.964 224.724 94.0192C226.859 101.646 228 109.688 228 117.995Z" fill="#D3D3D3"/>
<path d="M228 117.995C228 126.303 226.859 134.354 224.725 141.981C224.706 142.036 224.697 142.091 224.679 142.146C220.391 144.769 215.349 146.277 209.957 146.277C204.299 146.277 199.017 144.612 194.601 141.742C186.826 136.709 181.683 127.95 181.683 117.995C181.683 108.041 186.826 99.2911 194.601 94.2584C199.017 91.3879 204.299 89.7227 209.957 89.7227C215.616 89.7227 220.391 91.2315 224.679 93.8536C224.697 93.9088 224.706 93.964 224.725 94.0192C226.859 101.646 228 109.688 228 117.995Z" fill="white"/>
<path d="M185.731 143.168C177.34 158.652 161.459 169.555 143.048 170.935C111.959 173.263 85.9017 148.615 85.9017 117.996C85.9017 117.205 85.9201 116.423 85.9569 115.641C86.1778 110.599 92.7472 108.621 95.6639 112.742C105.297 126.322 121.132 135.191 138.991 135.191C153.022 135.191 165.811 129.717 175.316 120.774C175.96 129.533 179.824 137.39 185.731 143.168Z" fill="#F9BDAA"/>
<circle cx="224" cy="28" r="9" fill="#F9BDAA"/>
<rect x="44" y="19" width="41" height="18" rx="9" fill="#F9BDAA"/>
</svg>
